<?xml version="1.0" encoding="utf-8"?>
<!-- Generator: Adobe Illustrator 20.0.0, SVG Export Plug-In . SVG Version: 6.00 Build 0)  -->
<svg version="1.1" xmlns="http://www.w3.org/2000/svg" xmlns:xlink="http://www.w3.org/1999/xlink" x="0px" y="0px"
	 viewBox="0 0 792 1224" style="enable-background:new 0 0 792 1224;" xml:space="preserve">
<style type="text/css">
	.st0{fill:none;stroke:#3953A4;stroke-width:4;stroke-linejoin:round;stroke-miterlimit:10;}
</style>
<g id="Layer_1">
</g>
<g id="icons">
	<g id="UXGMZ5_1_">
		<g id="XMLID_85_">
			<path id="XMLID_225_" class="st0" d="M445.6,644c2.3-4.4,4.7-8.8,6.9-13.2c0.3-0.5,0.3-1.5,0-2c-4.6-8.8-9.4-17.5-14.1-26.3
				c-0.1-0.2-0.3-0.4-0.3-0.5c0.1,8.7,0.2,17.6,0.3,26.4c0,1.2-0.3,1.8-1.6,1.7c-1.5-0.1-3.1-0.1-4.6,0c-1.4,0.1-1.9-0.6-1.9-1.9
				c0-0.9,0-1.8,0-3c-0.5,0.3-0.7,0.4-0.9,0.5c-5.1,5-11.4,6-18.1,5.6c-3-0.2-5.9-1-8.4-2.8c-3.3-2.2-4.8-5.4-5.2-9.8
				c-3,7.2-8.1,11.3-15.4,12.4c-7,1-13.5-0.3-18.9-5.7c-0.1,1.2-0.1,2.1-0.2,3c0,1.2-0.5,1.8-1.9,1.8c-1.7-0.1-3.5-0.1-5.2,0
				c-1.2,0-1.7-0.4-1.7-1.7c0.1-4.3,0-8.6,0.1-12.9c0-1.6-0.5-2-2.1-2c-9.9,0.1-19.8,0.1-29.6,0.1c-1.5,0-2,0.3-1.7,1.9
				c1,5.5,5.2,9.5,10.8,9.8c2.1,0.1,4.2,0,6.2-0.4c2.7-0.6,4.7-2.2,6.2-4.6c0.4-0.6,1.4-1.2,2.1-1.2c2.4-0.2,4.8-0.1,7.4-0.1
				c-0.5,3.6-2.2,6-4.6,8c-3,2.5-6.6,3.7-10.4,4.1c-4.7,0.5-9.4,0.4-13.9-0.9c-7.9-2.4-12.5-8.3-12.8-16.8c-0.1-2.7,0.1-5.4,0.6-8.1
				c1.3-6.4,5.2-10.7,11.4-12.7c5.8-1.9,11.6-2.1,17.5-0.5c6,1.6,10.1,5.3,12.2,11.2c0.1,0.3,0.2,0.6,0.7,0.8c0-0.6,0-1.2,0-1.8
				c0-7.9-0.1-15.8-0.1-23.7c0-2.3,0-2.3,2.4-2.4c1.6,0,3.2,0.1,4.7,0c1.4-0.1,1.8,0.5,1.7,1.8c0,5.7,0,11.4,0,17.1
				c0,0.5,0.1,1.1,0.1,1.7c7.6-6.5,16-7.4,24.9-3.6c7,3,9.8,8.7,10.7,19.8c1.5-1.2,2.9-2.6,4.6-3.6c3.1-1.9,6.6-2.6,10.2-2.8
				c4.6-0.2,9.2-0.3,13.9-0.4c1.9,0,2.1-0.3,1.9-2.2c-0.3-3-1.8-5.1-4.5-6.2c-3.6-1.5-7.4-1.5-11.1-0.2c-1.8,0.6-3.1,1.9-4,3.7
				c-0.3,0.6-1.1,1.2-1.7,1.2c-2.1,0.2-4.2,0-6.3,0.1c-1.2,0-1.5-0.5-1.2-1.6c0.9-3.8,3.3-6.4,6.8-7.7c9-3.3,17.9-3.9,26.4,1.6
				c0.1,0.1,0.3,0.1,0.6,0.2c-0.4-0.9-0.7-1.6-1.1-2.7c3.3,0,6.4-0.1,9.4,0c0.5,0,1.1,0.9,1.4,1.5c4.2,8.4,8.4,16.7,12.6,25.1
				c0.3,0.5,0.6,1.1,1,1.9c0.4-0.7,0.7-1.2,1-1.8c4.1-8.3,8.3-16.7,12.4-25.1c0.7-1.5,1.6-2.1,3.2-2c2.3,0.1,4.6,0,6.9,0
				c0,0.1,0,0.2,0,0.3c-0.2,0.2-0.3,0.5-0.4,0.7c-8.5,16.8-17,33.7-25.5,50.5C452.1,644,448.9,644,445.6,644z M389.8,611.3
				c-0.3-1.7-0.5-3.5-1-5.1c-1.4-4.8-5.7-8.3-10.4-8.7c-5.7-0.5-10.4,1.2-13.3,6.4c-1.8,3.2-2,6.7-1.6,10.4
				c1.1,7.7,8.2,12.7,15.8,10.9C385.7,623.8,389.6,618.5,389.8,611.3z M423.7,612.2C423.7,612.2,423.7,612.3,423.7,612.2
				c-1,0-1.9-0.1-2.9,0.1c-3.4,0.5-6.9,0.7-10.1,1.6c-3.8,1.1-5,4.9-3.1,8.2c1.1,1.9,2.8,2.9,4.9,3.3c3.2,0.7,6.3,0.5,9.3-0.5
				c4.8-1.6,7.7-5.7,7.7-10.8c0-1.3-0.4-2-1.8-1.9C426.4,612.3,425,612.2,423.7,612.2z M333.3,608c3.5,0,7-0.1,10.5,0
				c1.5,0,1.9-0.6,1.6-1.9c-0.6-3.2-2.3-5.8-5.3-7.3c-5.2-2.5-10.3-2.1-15,1.3c-1.9,1.4-3.2,3.3-3.7,5.7c-0.5,2-0.3,2.3,1.8,2.3
				C326.6,608,330,608,333.3,608z"/>
		</g>
	</g>
</g>
</svg>
