<?xml version="1.0" encoding="utf-8"?>
<!-- Generator: Adobe Illustrator 20.0.0, SVG Export Plug-In . SVG Version: 6.00 Build 0)  -->
<svg version="1.1" xmlns="http://www.w3.org/2000/svg" xmlns:xlink="http://www.w3.org/1999/xlink" x="0px" y="0px"
	 viewBox="0 0 90.6 90.6" style="enable-background:new 0 0 90.6 90.6;" xml:space="preserve">
<style type="text/css">
	.st0{fill:#390AFF;}
</style>
<g id="Layer_1">
</g>
<g id="icons">
	<g id="XMLID_56_">
		<g id="XMLID_19_">
			<path class="st0" d="M43.7,9l2.1,0l2.1,0l0.6,0.1c0.8,0.1,1.6,0.3,2.3,0.4c9.6,1.5,18,6.6,23.8,14.3c5.7,7.8,8.1,17.3,6.6,26.9
				c-1.3,8.6-5.7,16.5-12.3,22.1c-6.5,5.6-14.9,8.7-23.4,8.7c-1.5,0-3.1-0.1-4.7-0.3c-15.4-2-27.8-13.5-30.9-28.8
				c-0.3-1.3-0.4-2.6-0.6-4C9.2,48,9.1,47.5,9,46.9l0-1.2l0-2.5c0.1-0.4,0.2-0.8,0.2-1.3c1.5-16,13.1-28.9,28.9-32.1
				c1.2-0.3,2.6-0.4,3.9-0.6C42.6,9.2,43.2,9.1,43.7,9 M45.3,76.7c14.1,0,26.2-9,30.1-22.5c1.4-4.8-0.9-9.5-5.5-10.9
				c-0.8-0.3-1.7-0.4-2.5-0.4c-3.6,0-6.7,2.3-8.1,6.1l-0.2,0.5c-0.4,1.1-0.7,2.1-1.1,2.7c-3.1,5.1-7.1,7.5-12.6,7.5
				c-0.7,0-1.4,0-2.1-0.1c-5.3-0.5-10.1-4.8-11.9-10.6c-1.9-6.2-6.7-6.7-8.2-6.7c-0.8,0-1.5,0.1-2.3,0.3c-2.1,0.6-3.9,1.9-5,3.8
				c-1.2,2-1.5,4.6-0.8,7.2C18.7,67,30.9,76.5,44.9,76.7L45.3,76.7 M43.3,3c-2.1,0.3-4.3,0.5-6.4,1C18.6,7.7,5.1,22.8,3.3,41.4
				c0,0.3-0.2,0.6-0.2,0.9C3,44,3,45.7,3,47.4c0.3,2.1,0.6,4.3,1,6.4c3.6,17.7,18,31.2,36,33.5c1.8,0.2,3.6,0.4,5.4,0.4
				c20.5,0,38.4-15,41.6-35.9c3.5-23-12.3-44.5-35.4-48.1c-1.1-0.2-2.2-0.4-3.3-0.5C46.7,3,45,3,43.3,3L43.3,3z M45.3,70.7
				c-0.1,0-0.2,0-0.3,0c-11.3-0.1-21.1-7.8-24-18.7c-0.5-1.8,0.1-3.2,1.5-3.6c0.3-0.1,0.5-0.1,0.8-0.1c1.2,0,2,0.8,2.4,2.4
				c2.4,8.1,9.2,14.1,17,14.9c0.9,0.1,1.8,0.1,2.7,0.1c7.6,0,13.6-3.5,17.8-10.4c0.8-1.3,1.3-2.8,1.8-4.3c0.5-1.4,1.4-2.2,2.5-2.2
				c0.3,0,0.5,0,0.8,0.1c1.4,0.4,1.9,1.8,1.4,3.5C66.5,63.3,56.6,70.7,45.3,70.7L45.3,70.7z"/>
		</g>
	</g>
</g>
</svg>
