<?xml version="1.0" encoding="utf-8"?>
<!-- Generator: Adobe Illustrator 20.0.0, SVG Export Plug-In . SVG Version: 6.00 Build 0)  -->
<svg version="1.1" id="Layer_1" xmlns="http://www.w3.org/2000/svg" xmlns:xlink="http://www.w3.org/1999/xlink" x="0px" y="0px"
	 viewBox="0 0 89.5 71.4" style="enable-background:new 0 0 89.5 71.4;" xml:space="preserve">
<style type="text/css">
	.st0{fill:#390AFF;}
</style>
<g id="Layer_1_1_">
</g>
<g id="icons">
	<path id="XMLID_190_" class="st0" d="M80.4,0.1L9.2,0c-5,0-9.1,4-9.1,9.1L0,62.2c0,5,4,9.1,9.1,9.1l71.3,0.1c5,0,9.1-4,9.1-9.1
		l0.1-53.1C89.5,4.2,85.5,0.1,80.4,0.1z M79.2,7.1L49.1,38.5c-2.7,1.8-6.2,1.8-8.8,0L10.4,7L79.2,7.1z M80.3,64.4L9.1,64.3
		c-1.1,0-2.1-1-2.1-2.1l0-48.6l28.5,29.9l0.4,0.4c2.5,2,5.7,2.9,8.8,2.9s6.1-1,8.8-2.9l0.3-0.1l28.7-30.1l-0.1,48.6
		C82.4,63.4,81.5,64.4,80.3,64.4z"/>
</g>
</svg>
