<?xml version="1.0" encoding="utf-8"?>
<!-- Generator: Adobe Illustrator 20.0.0, SVG Export Plug-In . SVG Version: 6.00 Build 0)  -->
<svg version="1.1" xmlns="http://www.w3.org/2000/svg" xmlns:xlink="http://www.w3.org/1999/xlink" x="0px" y="0px"
	 viewBox="0 0 92.4 89.5" style="enable-background:new 0 0 92.4 89.5;" xml:space="preserve">
<style type="text/css">
	.st0{fill:none;stroke:#390AFF;stroke-width:6;stroke-miterlimit:10;}
	.st1{fill-rule:evenodd;clip-rule:evenodd;fill:none;stroke:#390AFF;stroke-width:6;stroke-miterlimit:10;}
</style>
<g id="Layer_1">
</g>
<g id="icons">
	<g id="XMLID_41_">
		<g id="XMLID_155_">
			<path id="XMLID_156_" class="st0" d="M75.3,13.8l-8.2,0.1c-1.5,0-2.7,1.2-2.7,2.7l0.1,8.2c0,1.5,1.2,2.7,2.7,2.7l8.2-0.1
				c1.5,0,2.7-1.2,2.7-2.7L78,16.5C78,15,76.8,13.8,75.3,13.8z"/>
		</g>
		<line id="XMLID_32_" class="st1" x1="59.5" y1="35.8" x2="89.2" y2="35.6"/>
		<line id="XMLID_9_" class="st1" x1="5.1" y1="36.1" x2="32.8" y2="35.9"/>
		<path id="XMLID_6_" class="st0" d="M89.4,69.1c0.1,9.4-7.5,17-16.9,17.1l-52.1,0.3C11,86.5,3.4,79,3.3,69.6L3,20.4
			C2.9,11,10.5,3.4,19.9,3.3L72,3c9.4-0.1,17,7.5,17.1,16.9L89.4,69.1z"/>
		
			<ellipse id="XMLID_54_" transform="matrix(1 -6.346976e-03 6.346976e-03 1 -0.3397 0.2887)" class="st1" cx="45.3" cy="53.7" rx="12.7" ry="12.7"/>
		
			<ellipse id="XMLID_43_" transform="matrix(1 -6.346976e-03 6.346976e-03 1 -0.3397 0.2887)" class="st1" cx="45.3" cy="53.7" rx="23.4" ry="23.4"/>
	</g>
</g>
</svg>
