<?xml version="1.0" encoding="utf-8"?>
<!-- Generator: Adobe Illustrator 20.0.0, SVG Export Plug-In . SVG Version: 6.00 Build 0)  -->
<svg version="1.1" xmlns="http://www.w3.org/2000/svg" xmlns:xlink="http://www.w3.org/1999/xlink" x="0px" y="0px"
	 viewBox="0 0 77.3 98.2" style="enable-background:new 0 0 77.3 98.2;" xml:space="preserve">
<style type="text/css">
	.st0{fill-rule:evenodd;clip-rule:evenodd;fill:none;stroke:#390AFF;stroke-width:6;stroke-miterlimit:10;}
</style>
<g id="Layer_1">
</g>
<g id="icons">
	<path id="XMLID_148_" class="st0" d="M32.6,62.9c-0.8,3-1.6,6.1-2.4,9.2c-0.8,3-1.5,6.1-2.7,8.9c-1.9,4.6-4.4,9-7.6,12.6
		c-2.1,2.4-1.7,1.4-2.3,1.3c-0.5-0.1-0.5-0.6-0.6-1.2c-0.5-3.7-0.1-7.9,0.1-12c0.3-4.7,1.3-8.6,2.3-12.5c1.8-7.4,3.6-14.7,5.5-22.1
		c0.1-0.5,0.5-1.3,0.3-1.6c-0.8-2.1-1.3-4-1.5-6.1c-0.2-2.5,0-4.8,0.6-7c1-3.8,3.4-7.2,7-8.4c2.3-0.8,4.8-0.4,6.3,0.5
		c1.6,0.9,2.6,2.4,3.1,4.5c0.5,2.2,0.1,4.9-0.4,6.8c-1,4.4-2.3,7.7-3.5,11.9c-0.6,2.1-1.3,4.2-0.7,6.5c0.5,2.1,1.6,3.5,3.1,4.6
		c1.5,1.1,3.4,1.8,5.9,1.7c4.5-0.1,7.6-2.9,9.7-5.6c3.4-4.2,5.4-10,6.3-16.8c0.3-2.2,0.5-4.7,0.3-7.2c-0.3-4.6-1.7-8.4-4-11.3
		c-2.2-2.8-5.3-5-9.1-6.2c-3.8-1.3-9-1.7-13.7-1c-8.5,1.4-14.5,6-18.1,12.6c-1.9,3.4-3.1,7.3-3.2,12.3c0,3.8,0.9,6.7,2.4,9
		c0.5,0.7,1.2,1.3,1.7,2.2c0.7,1.2-0.1,2.9-0.5,4.2c-0.4,1.5-0.5,3.6-2.3,3.7c-0.8,0-2.4-1-3-1.4c-3.7-2.8-5.1-4.7-7-9.3
		c-1.4-3.5-2-10.1-1.3-13.7c0.7-3.5,2.3-8.3,3.8-10.9c3-5.4,7.4-9.7,12.8-12.7c4.1-2.3,8.7-4,14.3-4.7C36.1,3.2,38,3.1,40.1,3
		c6.1-0.2,11.6,1.2,15.8,3.1c4.4,2,7.9,4.6,10.8,7.8c3,3.3,5.2,7.2,6.6,12c0.7,2.5,1,5.3,1,8.4c0,3.1-0.3,5.7-0.8,8.4
		c-1.8,10.2-6.8,18.4-14.2,23.1c-1.8,1.1-4,2.2-6.4,2.9c-2.4,0.7-5.2,1.2-8.2,0.9c-2.9-0.2-5.2-1-7.2-2.1
		C35.4,66.3,33.7,64.9,32.6,62.9z"/>
</g>
</svg>
