<?xml version="1.0" encoding="utf-8"?>
<!-- Generator: Adobe Illustrator 20.0.0, SVG Export Plug-In . SVG Version: 6.00 Build 0)  -->
<svg version="1.1" xmlns="http://www.w3.org/2000/svg" xmlns:xlink="http://www.w3.org/1999/xlink" x="0px" y="0px"
	 viewBox="0 0 88 100.6" style="enable-background:new 0 0 88 100.6;" xml:space="preserve">
<style type="text/css">
	.st0{fill:none;stroke:#0000FF;stroke-width:3;stroke-miterlimit:10;}
	.st1{fill:none;stroke:#0000FF;stroke-width:6;stroke-miterlimit:10;}
</style>
<g id="Layer_1">
</g>
<g id="icons">
	<g id="XMLID_11_">
		<g id="XMLID_18_">
			<g id="XMLID_27_">
				<g id="XMLID_210_">
					<path id="XMLID_211_" class="st0" d="M19.3,66.8c-0.5,1.3-0.9,2.5-1.4,3.6c-0.5,1.2-1,2.3-1.4,3.5c-0.1,0.3-0.1,0.7,0,0.9
						c0.2,0.4,0.5,0.7,0.8,1c1.2,1.3,2.6,2.3,4.1,3.2c1.7,1,3.4,1.6,5.3,2c1.2,0.2,2.4,0.3,3.6,0.5c1.7,0.2,3.3-0.1,4.8-0.7
						c1.6-0.6,3-1.5,4.3-2.6c1.1-0.9,1.9-2,2.6-3.2c0.8-1.5,1.4-3.1,1.7-4.8c0.4-1.9,0.5-3.8,0.2-5.7c-0.4-2.4-1.5-4.5-3.2-6.4
						c-1.6-1.9-3.6-3.5-5.5-5.1c-0.9-0.8-1.6-1.7-2.1-2.7c-0.5-0.9-0.3-1.8,0-2.7c0.9-2,2.6-2.6,4.6-2.7c2.6-0.1,5.1,0.7,7.5,1.9
						c0.7,0.3,0.8,0.3,1.1-0.4c0.3-0.7,0.5-1.4,0.8-2.1c1-2.3,2-4.7,3-7c0.2-0.5,0.1-0.7-0.3-0.8c-0.8-0.3-1.5-0.6-2.3-0.8
						c-1.9-0.6-3.9-0.9-5.9-0.9c-1.4,0-2.8,0.1-4.2,0.3c-2,0.2-4,0.9-5.8,1.8c-2,1.1-3.7,2.5-5.2,4.3c-1.4,1.8-2.4,3.7-3,5.8
						c-0.6,1.9-0.8,3.9-0.6,5.9c0.2,2.5,1.3,4.6,2.9,6.5c1.2,1.3,2.5,2.5,3.7,3.8c1.5,1.5,2.6,3.1,2.3,5.3c-0.1,0.8-0.4,1.5-1,2.1
						c-1.1,1.1-2.6,1.2-4,0.8c-2.1-0.5-3.9-1.7-5.6-3C20.7,67.8,20,67.3,19.3,66.8z M30.1,23.1c0.5,0,0.8,0,1.1,0
						c0.9-0.2,1.8-0.4,2.7-0.6c1.1-0.2,2.2-0.5,3.3-0.8c0.3-0.1,0.6-0.4,0.8-0.6c0.7-1.7,1.2-3.4,2-5.1c1.4-3,3.2-5.6,6-7.6
						c0.7-0.5,1.4-0.8,2.1-1.2c0.2-0.1,0.4-0.2,0.6-0.4c-0.2-0.2-0.4-0.4-0.7-0.5C46.5,6,45.3,6.2,44,6.5c-2.1,0.6-3.9,1.6-5.5,3.2
						c-0.8,0.9-1.7,1.8-2.5,2.7c-0.7,0.9-1.4,1.8-1.9,2.7c-0.6,1-1.2,2.1-1.7,3.2C31.7,19.8,31,21.4,30.1,23.1z M41.6,20.6
						c0.3,0,0.5,0,0.6,0c1.5-0.3,2.9-0.7,4.4-1c1-0.2,1.9-0.4,2.9-0.5c0.9-0.1,1.6-0.5,1.6-1c0-1.4,0.1-2.7,0-4.1
						c0-1-0.2-2.1-0.3-3.1c0-0.3-0.1-0.8-0.6-0.7c-0.5,0.1-1,0.3-1.5,0.6c-0.7,0.4-1.3,0.9-1.9,1.4c-1.4,1.2-2.5,2.6-3.3,4.2
						c-0.6,1-1,2.1-1.5,3.2C41.9,19.8,41.8,20.1,41.6,20.6z M58.8,16.9c-0.1-0.5,0-0.9-0.1-1.2c-0.5-1.3-0.9-2.7-1.8-3.9
						c-0.3-0.3-0.4-0.7-0.7-1c-0.6-0.5-1.2-1.2-2.2-1.1c0.1,0.3,0.1,0.5,0.2,0.8c0.1,0.9,0.3,1.7,0.3,2.6c0,1.4-0.1,2.8-0.1,4.2
						c0,0.2,0.3,0.5,0.4,0.4C56.1,17.5,57.4,17.2,58.8,16.9z"/>
				</g>
			</g>
		</g>
		<path id="XMLID_216_" class="st1" d="M84.8,93.7c-2,0.3-3.8,0.5-5.7,0.8c-2.6,0.4-5.3,0.7-7.9,1.1c-2.5,0.3-4.9,0.7-7.4,1
			c-2.6,0.4-5.3,0.7-7.9,1c-0.2,0-0.4,0-0.5-0.1c-2-0.5-4-1.1-6-1.7c-1.8-0.5-3.6-0.9-5.4-1.4c-1.2-0.3-2.3-0.7-3.5-1
			c-1.2-0.3-2.3-0.6-3.5-0.9c-2.3-0.6-4.6-1.3-7-1.9c-1.1-0.3-2.3-0.6-3.4-0.9c-1.8-0.5-3.6-1-5.5-1.5c-1.2-0.3-2.4-0.6-3.6-0.9
			c-1.9-0.5-3.8-1.1-5.7-1.6c-1.7-0.5-3.4-0.9-5-1.3c-1.1-0.3-2.2-0.6-3.2-0.8c-0.4-0.1-0.5-0.3-0.4-0.7c0.3-1.4,0.5-2.8,0.8-4.1
			c0.2-1.2,0.5-2.3,0.8-3.5c0.4-1.9,0.8-3.8,1.2-5.6c0.4-1.9,0.9-3.9,1.3-5.8c0.4-1.8,0.7-3.6,1.1-5.4c0.3-1.7,0.7-3.3,1.1-5
			c0.3-1.4,0.6-2.9,0.9-4.3c0.3-1.2,0.6-2.5,0.9-3.7c0.3-1.2,0.5-2.4,0.7-3.6c0.4-2,0.9-3.9,1.3-5.9c0.3-1.2,0.5-2.5,0.7-3.7
			c0.3-1.5,0.6-3,1-4.4c0.2-0.7,0.8-1.1,1.5-1.3c1.3-0.3,2.6-0.7,4-0.9c1.5-0.3,3.1-0.6,4.6-1c1.3-0.3,1.5-0.2,1.9-1.6
			c0.4-1.1,0.9-2.2,1.3-3.4c0.3-0.8,0.7-1.6,1.1-2.4c0.5-1,1-1.9,1.6-2.8c0.7-1.1,1.3-2.1,2.1-3.1c0.8-1.1,1.7-2.1,2.6-3
			C36.3,7.4,37,6.6,37.9,6c2.3-1.6,4.7-2.8,7.6-3C46.7,3,47.8,2.9,49,3.3c1.4,0.5,2.3,1.4,3.2,2.5C52.4,6,52.7,6.2,53,6.2
			c1.4,0.1,2.6,0.5,3.8,1.3c1.3,0.8,2.1,2,3,3.2c1,1.5,1.5,3.1,2,4.8c0.2,0.5,0.4,0.6,0.9,0.5c0.8-0.2,1.6-0.5,2.4-0.5
			c0.7,0,1.5-0.1,2,0.7c0.6,0.9,1.4,1.6,2.1,2.4c0.8,0.9,1.6,1.9,2.4,2.8c0.3,0.3,0.7,0.4,1.1,0.5c1.5,0.3,2.9,0.5,4.4,0.8
			c0.7,0.1,1.4,0.2,2,0.3c0.7,0.1,1.1,0.5,1.1,1.2c0,1,0.1,2.1,0.2,3.1c0.1,1.5,0.2,3,0.3,4.5c0,0.7,0.1,1.5,0.1,2.2
			c0.2,2.1,0.3,4.3,0.5,6.4c0.1,1.9,0.3,3.8,0.4,5.7c0.1,1.8,0.2,3.6,0.3,5.4c0.1,2.1,0.2,4.1,0.4,6.2c0.1,1.6,0.3,3.1,0.4,4.7
			c0.1,1.5,0.1,2.9,0.2,4.4c0.1,1,0.2,1.9,0.3,2.9c0.1,1.5,0.2,3.1,0.3,4.6c0.1,1.2,0.2,2.5,0.3,3.7c0.1,2,0.3,4,0.4,6.1
			c0.1,2.2,0.3,4.5,0.4,6.7C84.6,91.8,84.7,92.8,84.8,93.7z"/>
	</g>
</g>
</svg>
