<?xml version="1.0" encoding="utf-8"?>
<!-- Generator: Adobe Illustrator 20.0.0, SVG Export Plug-In . SVG Version: 6.00 Build 0)  -->
<svg version="1.1" id="Layer_1" xmlns="http://www.w3.org/2000/svg" xmlns:xlink="http://www.w3.org/1999/xlink" x="0px" y="0px"
	 viewBox="0 0 512 378.9" style="enable-background:new 0 0 512 378.9;" xml:space="preserve">
<style type="text/css">
	.st0{fill:#0000FF;}
</style>
<g transform="translate(0 -540.36)">
	<g>
		<g>
			<path class="st0" d="M355.7,721.7c4.1,4.1,10.7,4,14.8-0.1c7.8-7.9,15.8-10,19.5-8c4.3,2.4,5.6,10.1,3,18.8
				c-1.7,5.6,1.6,11.4,7.1,13c0.9,0.3,2,0.4,2.9,0.4l0,0c4.5,0,8.7-2.9,10.1-7.4c5.5-18.8,0.3-35.7-13-43
				c-13-7.2-30.5-2.7-44.6,11.5C351.5,711,351.6,717.6,355.7,721.7z"/>
			<path class="st0" d="M509.9,671.3L509.9,671.3c-2.1-2.8-5.5-4.4-8.9-4.2c-44.5,2.3-90.8-8.7-130.3-31.2
				c-37.9-21.5-68.9-52.8-89.7-90.2c-1.7-3-4.8-5-8.3-5.4c-3.5-0.3-6.8,1.2-9,3.9c-13.2,16.3-23.3,31.2-30.7,45.5
				c-13.1,23.3-22.6,45.4-28.7,67.5c-19.9,8.7-41.2,14.8-63.6,18.2c-42.9,6.2-87.6,0.7-125.7-15.5c-3.1-1.4-6.8-1-9.7,0.7
				s-4.7,4.9-4.9,8.4c-0.8,18.7,0,37,2.5,54.9c10.7,72.3,44.5,135.8,90.3,169.8c22.8,16.9,47.4,25.6,71.9,25.6
				c5.1,0,10.3-0.4,15.4-1.2c33.7-4.8,63.1-26,84.4-60.4c12.6,4.9,26.1,7.3,40.3,7.3c23.2,0,48.1-6.6,73-19.6
				c42.8-22.3,81.6-61.3,109.3-109.7c0.1-0.1,0.1-0.2,0.2-0.4c9.5-18.5,17.5-36.6,23.8-54.1C512.5,677.8,512,674.2,509.9,671.3z
				 M253.4,835.2c-0.1,0.1-0.1,0.2-0.2,0.3c-0.6,1.2-1.3,2.3-1.9,3.6c-18.3,33.4-44.2,53.9-74,58.1l0,0
				c-23.9,3.6-48.7-3.5-71.7-20.6c-41.5-30.7-72.2-89-82-155.8c-1.7-11.8-2.5-23.8-2.6-36.2c38.2,13.3,81.2,17.4,122.6,11.4
				c27.9-4.2,54.5-12.4,78.8-24.2c15.4-7.3,29.7-16.2,43.3-26.6c0.4,1.6,0.9,3.3,1.4,4.8c0,0.1,0.1,0.2,0.1,0.4
				c0.1,0.5,0.2,0.9,0.4,1.5c0.1,0.4,0.2,0.7,0.3,1.2c0.1,0.2,0.1,0.5,0.2,0.7c0.1,0.6,0.3,1.3,0.4,1.9c2.5,10.2,4.3,19.8,5.7,28.2
				c0,0.1,0,0.2,0,0.3C281.7,740,274.2,794.7,253.4,835.2z M469.1,725.5L469.1,725.5C419.8,811.7,335,860.3,274.8,839
				c0-0.1,0.1-0.1,0.1-0.2c0.1-0.2,0.2-0.3,0.2-0.5c0.3-0.7,0.7-1.5,1-2.2c0.2-0.5,0.4-0.9,0.6-1.5c0.4-0.8,0.7-1.7,1.2-2.6
				c0.2-0.5,0.5-1.2,0.7-1.7c0.3-0.8,0.7-1.7,1-2.6c0.2-0.5,0.4-1.2,0.7-1.7c0.4-0.9,0.7-1.9,1-2.8c0.2-0.5,0.4-0.9,0.5-1.5
				c0.4-1.2,0.8-2.2,1.3-3.4c0.1-0.3,0.2-0.6,0.3-0.9c0.5-1.4,0.9-2.8,1.5-4.2v-0.1c0.9-2.9,1.9-5.9,2.7-8.9c12.5,5,26,7.6,39.2,7.6
				c18,0,35.8-4.6,50.4-13.8c4.9-3,6.4-9.5,3.3-14.5c-3-4.9-9.5-6.4-14.5-3.3c-20.5,12.9-49.2,14.2-73.3,3.4c0,0,0,0-0.1,0
				c6.3-32,7.1-66.8,2.2-102.2v-0.1c0-0.1,0-0.2,0-0.3c-0.5-3.1-1.2-6.4-1.8-9.9c5.4-2.1,10.5-2,12.8,0.3c3.1,3.3,3.7,10.1,1.4,18.3
				c-1.6,5.6,1.7,11.3,7.2,12.9c0.9,0.3,1.9,0.4,2.8,0.4c4.6,0,8.8-3,10.1-7.7c4.5-16.1,2.2-29.7-6.6-38.6
				c-7.8-7.9-19.8-10.1-32.2-6.3c-2.1-8.6-4.7-17.6-7.9-26.4c-1.2-3.3-3.9-5.8-7.2-6.6c-1.3-0.3-2.5-0.4-3.8-0.3
				c-0.3,0-0.6,0.1-0.8,0.1c-0.1,0-0.2,0-0.4,0.1c-1.2,0.3-2.2,0.7-3.1,1.4c-0.1,0.1-0.2,0.1-0.3,0.2c-0.3,0.2-0.7,0.5-1,0.8
				c-1.2,1-2.3,2-3.5,2.9c-0.9,0.7-1.9,1.6-2.8,2.3c-0.1,0.1-0.2,0.1-0.2,0.2c-8.5,6.8-17.4,13.1-26.9,18.8
				c5.4-14.3,12.2-28.6,20.6-43.6c0.1-0.1,0.1-0.2,0.2-0.3c4.9-9.5,11.3-19.5,19.2-30.1c22.2,34.8,53,64,89.6,84.8
				c38.4,21.7,82.5,33.6,125.9,34.2C481.3,700.5,475.6,712.9,469.1,725.5z"/>
			<path class="st0" d="M85.3,767.8c5.1,0,9.7-3.8,10.5-9.1c0.9-7.7,4.9-12.5,8.1-12.8c5.1-0.4,11,3.9,14.7,10.7c2.7,5,9,7,14.2,4.3
				c5-2.7,7-9,4.3-14.2c-7.7-14.5-21.4-23-35-21.8c-14,1.4-24.8,13.7-27.1,31.1c-0.7,5.8,3.3,11,9,11.8
				C84.4,767.8,84.9,767.8,85.3,767.8L85.3,767.8z"/>
			<path class="st0" d="M179.8,756.3c0.5,0.1,0.9,0.1,1.5,0.1l0,0c5.1,0,9.7-3.8,10.4-9c1-7.1,5-11.9,8.2-12.2
				c0.2,0,0.5-0.1,0.7-0.1c4.6-0.8,10.2,3.4,13.6,10.5c2.6,5.2,8.8,7.3,14.1,4.8c5.2-2.6,7.3-8.8,4.8-14.1
				c-7.7-15.6-21.6-24.2-35.6-22c-13.4,1.5-24.3,13.8-26.6,30.1C170.1,750.2,174.1,755.5,179.8,756.3z"/>
			<path class="st0" d="M236.8,790.2c-5.6-1.4-11.3,2-12.8,7.6c-6.2,23.5-27.3,41.5-53.8,45.8c-26.4,3.5-52.8-8-65.6-28.5
				c-3-4.9-9.5-6.4-14.5-3.4c-4.9,3-6.4,9.5-3.4,14.5c15.3,24.4,43.3,39,73.7,39c4.2,0,8.4-0.3,12.7-0.8c0.1,0,0.2,0,0.3,0
				c34.8-5.7,62.6-29.7,70.9-61.4C245.7,797.5,242.4,791.7,236.8,790.2z"/>
			<path class="st0" d="M160.4,865.2L160.4,865.2L160.4,865.2z"/>
		</g>
	</g>
</g>
</svg>
