<?xml version="1.0" encoding="utf-8"?>
<!-- Generator: Adobe Illustrator 20.0.0, SVG Export Plug-In . SVG Version: 6.00 Build 0)  -->
<svg version="1.1" xmlns="http://www.w3.org/2000/svg" xmlns:xlink="http://www.w3.org/1999/xlink" x="0px" y="0px"
	 viewBox="0 0 101.3 78.4" style="enable-background:new 0 0 101.3 78.4;" xml:space="preserve">
<style type="text/css">
	.st0{fill:#390AFF;}
</style>
<g id="Layer_1">
</g>
<g id="icons">
	<g id="XMLID_29_" transform="translate(0,-952.36218)">
		<path id="XMLID_31_" class="st0" d="M10.4,952.4c-5.6,0-10.4,4.7-10.4,10.4L0,1022.6c0,2.2,0.8,4.3,2.2,5.8
			c1.5,1.5,3.6,2.3,5.8,2.3l85.2,0.1c2.2,0,4.4-0.8,5.8-2.3c1.5-1.5,2.2-3.5,2.2-5.8l0-48.6c0-5.5-4.5-10.1-10.1-10.1l-38.5,0
			l-1.1-3.1c-1.9-5.4-7.2-8.4-12.5-8.4L10.4,952.4z M10.4,957l28.8,0c3.4,0,7,2.1,8.2,5.4l5.7,16.1c0.3,0.9,1.2,1.5,2.2,1.5l38,0
			c1.3,0,2,0.3,2.6,0.9c0.5,0.5,0.9,1.3,0.9,2.6l0,39.1c0,1.3-0.4,2-0.9,2.6c-0.5,0.5-1.3,0.9-2.6,0.9L8.1,1026
			c-1.3,0-2-0.4-2.6-0.9c-0.5-0.5-0.9-1.3-0.9-2.6l0.1-59.9C4.7,959.8,7.5,957,10.4,957z M54.4,968.5l36.8,0c3.1,0,5.5,2.4,5.5,5.5
			l0,2.1c-1.1-0.4-2.2-0.7-3.5-0.7l-36.4,0L54.4,968.5z"/>
	</g>
</g>
</svg>
