<?xml version="1.0" encoding="utf-8"?>
<!-- Generator: Adobe Illustrator 20.0.0, SVG Export Plug-In . SVG Version: 6.00 Build 0)  -->
<svg version="1.1" xmlns="http://www.w3.org/2000/svg" xmlns:xlink="http://www.w3.org/1999/xlink" x="0px" y="0px"
	 viewBox="0 0 99 69.6" style="enable-background:new 0 0 99 69.6;" xml:space="preserve">
<style type="text/css">
	.st0{fill:none;stroke:#390AFF;stroke-width:6;stroke-miterlimit:10;}
</style>
<g id="Layer_1">
</g>
<g id="icons">
	<g id="XMLID_133_">
		<g id="XMLID_143_">
			<path id="XMLID_146_" class="st0" d="M74.8,3c-11.7,0-21.1,9.5-21.1,21.2c0,11.5,9.3,20.9,20.8,21.1c-5.3,5.2-12.6,8.5-20.7,8.5
				l0,12.7c23.3-0.1,42.2-19,42.2-42.4C96,12.4,86.5,3,74.8,3z M24.1,3.1C12.4,3.1,3,12.6,3,24.3c0,11.5,9.3,20.9,20.8,21.1
				c-5.3,5.2-12.6,8.5-20.7,8.5l0,12.7c23.3-0.1,42.2-19,42.2-42.4C45.2,12.5,35.8,3.1,24.1,3.1z"/>
		</g>
	</g>
</g>
</svg>
