<?xml version="1.0" encoding="utf-8"?>
<!-- Generator: Adobe Illustrator 20.0.0, SVG Export Plug-In . SVG Version: 6.00 Build 0)  -->
<svg version="1.1" xmlns="http://www.w3.org/2000/svg" xmlns:xlink="http://www.w3.org/1999/xlink" x="0px" y="0px"
	 viewBox="0 0 57 88.8" style="enable-background:new 0 0 57 88.8;" xml:space="preserve">
<style type="text/css">
	.st0{fill-rule:evenodd;clip-rule:evenodd;fill:none;stroke:#390AFF;stroke-width:6;stroke-linejoin:round;stroke-miterlimit:10;}
</style>
<g id="Layer_1">
</g>
<g id="icons">
	<path id="XMLID_66_" class="st0" d="M20.7,3l11.6,0.1L32.1,26l21,0.1l-0.1,14L32.5,40l-0.1,23.2c0,0-1,8.9,8.9,8
		c3.5-0.3,9.3-1.6,12.7-6l-0.1,14.2c0,0-4.6,4.7-13.5,6c-3.4,0.5-10,0.6-13.5,0.2c-6.5-0.9-15.2-4.1-15.1-21.3l0.2-24.2L3,39.8
		l0.1-14.4C3.1,25.4,20.5,24.9,20.7,3z"/>
</g>
</svg>
