<?xml version="1.0" encoding="utf-8"?>
<!-- Generator: Adobe Illustrator 20.0.0, SVG Export Plug-In . SVG Version: 6.00 Build 0)  -->
<svg version="1.1" xmlns="http://www.w3.org/2000/svg" xmlns:xlink="http://www.w3.org/1999/xlink" x="0px" y="0px"
	 viewBox="0 0 101.2 85.5" style="enable-background:new 0 0 101.2 85.5;" xml:space="preserve">
<style type="text/css">
	.st0{fill:#390AFF;}
</style>
<g id="Layer_1">
</g>
<g id="icons">
	<g id="XMLID_144_">
		<path id="XMLID_145_" class="st0" d="M98.4,9.4c0.7-2.6-0.2-5.3-2.3-7c-1.2-0.9-2.6-1.4-4.1-1.4c-1.2,0-2.3,0.3-3.3,1
			c-2,1.2-4.2,2.2-6.4,2.9C78,1.7,72.7-0.1,67.2,0C54.7,0.1,44.4,9.6,42.9,21.7c-10-2-19.1-7.4-25.8-15.4C15.9,4.7,14,3.9,12,3.9
			c-0.2,0-0.3,0-0.5,0c-2.1,0.2-4,1.4-5.1,3.3C4.2,11,3.1,15.3,3.2,19.7c0,3,0.6,5.8,1.6,8.5c-1,1.2-1.6,2.7-1.6,4.4
			C3.2,39.1,5.7,45,9.9,49.4c-0.2,1.1-0.2,2.3,0.2,3.4c1.5,4.4,4.1,8.2,7.5,11.1c-2.2,0.5-4.4,0.8-6.7,0.8c-1.2,0-2.4-0.1-3.6-0.2
			c-0.3,0-0.5,0-0.8,0c-2.7,0-5.2,1.8-6.1,4.4c-1,2.9,0.1,6.1,2.7,7.7c9.5,5.9,20.4,9,31.5,8.9c36.2-0.4,57.6-29.7,57.7-58.1
			c2.9-2.5,5.5-5.5,7.6-8.7c0.8-1.1,1.3-2.5,1.3-4C101.2,12.5,100.1,10.6,98.4,9.4z M85.7,24.3c0,0.8,0.1,1.6,0.1,2.4
			C86,50.7,68,78.6,34.5,79c-10.3,0.1-19.9-2.8-28-7.9c1.4,0.1,2.9,0.2,4.3,0.2c8.5-0.1,16.3-3.1,22.5-8c-8-0.1-14.7-5.3-17.1-12.5
			c1.1,0.2,2.3,0.3,3.4,0.3c1.7,0,3.3-0.3,4.8-0.7c-8.3-1.6-14.7-8.9-14.8-17.7c0-0.1,0-0.2,0-0.2c2.5,1.3,5.3,2.1,8.3,2.2
			c-4.9-3.2-8.2-8.8-8.2-15.1c0-3.3,0.8-6.5,2.4-9.2c9.1,10.9,22.6,18,37.7,18.6c-0.3-1.3-0.5-2.7-0.5-4.1c-0.1-10,8-18.3,18-18.4
			c5.2-0.1,10,2.1,13.3,5.6c4.1-0.9,8-2.4,11.5-4.5c-1.3,4.3-4.2,7.9-7.9,10.1c3.7-0.5,7.2-1.5,10.4-3
			C92.3,18.5,89.2,21.7,85.7,24.3z"/>
	</g>
</g>
</svg>
